{"title":"The Ilusionauts 2012 BRRip 720p x264 AAC - PRiSTiNE [P2PDL]","uid":8646437,"size":532144336,"categoryP":"video","categoryS":"hd___movies","magnet":"?xt=urn:btih:558d347d310d6fe38656a77a064ee8db9d41a0c3&amp;dn=The+Ilusionauts+2012+BRRip+720p+x264+AAC+-+PRiSTiNE+%5BP2PDL%5D&amp;tr=udp%3A%2F%2Ftracker.openbittorrent.com%3A80&amp;tr=udp%3A%2F%2Fopen.demonii.com%3A1337&amp;tr=udp%3A%2F%2Ftracker.coppersurfer.tk%3A6969&amp;tr=udp%3A%2F%2Fexodus.desync.com%3A6969","seeders":2,"leechers":0,"uploader":"ValidusVyto","files":-1,"time":1372996154,"description":"_______ Visit us at our Semi Public Bittorrent Community ________\n  &lt;a href=&quot;\nhttp://p2pdl.com&quot; rel=&quot;nofollow&quot; target=&quot;_NEW&quot;&gt;\nhttp://p2pdl.com&lt;/a&gt;  _____________________________ &lt;a href=&quot; http://p2pdl.com&quot; rel=&quot;nofollow&quot; target=&quot;_NEW&quot;&gt; http://p2pdl.com&lt;/a&gt;\n\n\nThe Ilusionauts 2012 BRRip 720p x264 AAC - PRiSTiNE\n\n\nOriginal Title: Los ilusionautas\nGenre: Animation | Fantasy\nDirector: Eduardo Schuldt\n\nInfo: &lt;a href=&quot;\nhttp://www.imdb.com/title/tt1893371/&quot; rel=&quot;nofollow&quot; target=&quot;_NEW&quot;&gt;\nhttp://www.imdb.com/title/tt1893371/&lt;/a&gt;\n\n\nFormat                         : MPEG-4\nFile size                      : 499 MiB\nDuration                       : 1h 21mn\nOverall bit rate               : 856 Kbps\nSource                         : 720p.BluRay.DTS.x264-PublicHD\n\nVideo\nFormat                         : AVC\nBit rate                       : 774 Kbps\nWidth                          : 1 280 pixels\nHeight                         : 720 pixels\nDisplay aspect ratio           : 16:9\nFrame rate mode                : Constant\nFrame rate                     : 23.976 fps\nStream size                    : 451 MiB (90%)\nWriting library                : x264 core 130 r2273\n\nAudio\nFormat                         : AAC\nBit rate mode                  : Variable\nBit rate                       : 79.9 Kbps\nChannel(s)                     : 2 channels\nChannel positions              : Front: L R\nSampling rate                  : 48.0 KHz\nStream size                    : 46.6 MiB (9%)\nLanguage                       : English\n\nSubtitle                       : N/a\n &lt;a href=&quot;\nhttp://ultraimg.com/images/mQPUg.png&quot; rel=&quot;nofollow&quot; target=&quot;_NEW&quot;&gt;\nhttp://ultraimg.com/images/mQPUg.png&lt;/a&gt; &lt;a href=&quot;\nhttp://ultraimg.com/images/NbjRO.png&quot; rel=&quot;nofollow&quot; target=&quot;_NEW&quot;&gt;\nhttp://ultraimg.com/images/NbjRO.png&lt;/a&gt; &lt;a href=&quot;\nhttp://ultraimg.com/images/D17y0.png&quot; rel=&quot;nofollow&quot; target=&quot;_NEW&quot;&gt;\nhttp://ultraimg.com/images/D17y0.png&lt;/a&gt; &lt;a href=&quot;\nhttp://ultraimg.com/images/3wuKI.png&quot; rel=&quot;nofollow&quot; target=&quot;_NEW&quot;&gt;\nhttp://ultraimg.com/images/3wuKI.png&lt;/a&gt; &lt;a href=&quot;\nhttp://ultraimg.com/images/Os3ZD.png&quot; rel=&quot;nofollow&quot; target=&quot;_NEW&quot;&gt;\nhttp://ultraimg.com/images/Os3ZD.png&lt;/a&gt; &lt;a href=&quot;\nhttp://ultraimg.com/images/1o28Z.png&quot; rel=&quot;nofollow&quot; target=&quot;_NEW&quot;&gt;\nhttp://ultraimg.com/images/1o28Z.png&lt;/a&gt; &lt;a href=&quot;\nhttp://ultraimg.com/images/M5XWJ.png&quot; rel=&quot;nofollow&quot; target=&quot;_NEW&quot;&gt;\nhttp://ultraimg.com/images/M5XWJ.png&lt;/a&gt;\n\n----------------------------------------------------------------------------------------------------\n\n\nEncoded using revolutionary 10bit encoding, which enables us to provide you more crispier \nand sharper images at small sizes, just make sure you follow our instructions without a fault.\nRecommend to you to use latest version of VLC player. Install K-Lite Codec Pack or shark007 codecs\nin case of any kind of problem in playback (For non-VLC Media Player users). Alternatively, install\nCore AVC codecs, the fastest decoder that there is coupled with Community Center Codec Pack and play\non Windows Media Player Classic. Check sample to be sure.\nEnjoy!\n\nEncoder Notes:Looking For Early Access To Anything You Can Provide DVDScr, R5, DVDR, BluRay, Direct\nAudio, Music Releases and Seedboxes. We require dedicated servers, so as to do more \nand fast releases of movies.\nIf You Got anything to offer please contact us at &quot;&lt;a class=&quot;__cf_email__&quot; href=&quot;/cdn-cgi/l/email-protection&quot; data-cfemail=&quot;f3909c9d87929087b383c183979fdd909c9e&quot;&gt;[email&amp;#160;protected]&lt;/a&gt;&lt;script cf-hash='f9e31' type=&quot;text/javascript&quot;&gt;\n/* &lt;![CDATA[ */!function(){try{var t=&quot;currentScript&quot;in document?document.currentScript:function(){for(var t=document.getElementsByTagName(&quot;script&quot;),e=t.length;e--;)if(t[e].getAttribute(&quot;cf-hash&quot;))return t[e]}();if(t&amp;&amp;t.previousSibling){var e,r,n,i,c=t.previousSibling,a=c.getAttribute(&quot;data-cfemail&quot;);if(a){for(e=&quot;&quot;,r=parseInt(a.substr(0,2),16),n=2;a.length-n;n+=2)i=parseInt(a.substr(n,2),16)^r,e+=String.fromCharCode(i);e=document.createTextNode(e),c.parentNode.replaceChild(e,c)}}}catch(u){}}();/* ]]&gt; */&lt;/script&gt;&quot;.\n\nFace book Fan Page:   &lt;a href=&quot;\nhttp://fbl.me/BC&quot; rel=&quot;nofollow&quot; target=&quot;_NEW&quot;&gt;\nhttp://fbl.me/BC&lt;/a&gt;","torrent":{"xt":"urn:btih:558d347d310d6fe38656a77a064ee8db9d41a0c3","amp;dn":"The+Ilusionauts+2012+BRRip+720p+x264+AAC+-+PRiSTiNE+%5BP2PDL%5D","amp;tr":["udp%3A%2F%2Ftracker.openbittorrent.com%3A80","udp%3A%2F%2Fopen.demonii.com%3A1337","udp%3A%2F%2Ftracker.coppersurfer.tk%3A6969","udp%3A%2F%2Fexodus.desync.com%3A6969"],"infoHash":"558d347d310d6fe38656a77a064ee8db9d41a0c3","infoHashBuffer":{"type":"Buffer","data":[85,141,52,125,49,13,111,227,134,86,167,122,6,78,232,219,157,65,160,195]},"announce":[],"urlList":[]}}